<svg id="visual" viewBox="0 0 1280 720" width="1280" height="720" xmlns="http://www.w3.org/2000/svg" xmlns:xlink="http://www.w3.org/1999/xlink" version="1.1"><rect x="0" y="0" width="1280" height="720" fill="#001220"></rect><path d="M0 437L30.5 433.5C61 430 122 423 183 414.5C244 406 305 396 366 405C427 414 488 442 548.8 451.2C609.7 460.3 670.3 450.7 731.2 442.7C792 434.7 853 428.3 914 421.7C975 415 1036 408 1097 403.2C1158 398.3 1219 395.7 1249.5 394.3L1280 393L1280 721L1249.5 721C1219 721 1158 721 1097 721C1036 721 975 721 914 721C853 721 792 721 731.2 721C670.3 721 609.7 721 548.8 721C488 721 427 721 366 721C305 721 244 721 183 721C122 721 61 721 30.5 721L0 721Z" fill="#c62368"></path><path d="M0 441L30.5 440.3C61 439.7 122 438.3 183 437.7C244 437 305 437 366 438.3C427 439.7 488 442.3 548.8 436.5C609.7 430.7 670.3 416.3 731.2 427.2C792 438 853 474 914 491C975 508 1036 506 1097 497.5C1158 489 1219 474 1249.5 466.5L1280 459L1280 721L1249.5 721C1219 721 1158 721 1097 721C1036 721 975 721 914 721C853 721 792 721 731.2 721C670.3 721 609.7 721 548.8 721C488 721 427 721 366 721C305 721 244 721 183 721C122 721 61 721 30.5 721L0 721Z" fill="#d03267"></path><path d="M0 536L30.5 530.2C61 524.3 122 512.7 183 502.5C244 492.3 305 483.7 366 477.3C427 471 488 467 548.8 476.5C609.7 486 670.3 509 731.2 521C792 533 853 534 914 532C975 530 1036 525 1097 522.8C1158 520.7 1219 521.3 1249.5 521.7L1280 522L1280 721L1249.5 721C1219 721 1158 721 1097 721C1036 721 975 721 914 721C853 721 792 721 731.2 721C670.3 721 609.7 721 548.8 721C488 721 427 721 366 721C305 721 244 721 183 721C122 721 61 721 30.5 721L0 721Z" fill="#da3f67"></path><path d="M0 522L30.5 525.2C61 528.3 122 534.7 183 537.7C244 540.7 305 540.3 366 546.8C427 553.3 488 566.7 548.8 566.8C609.7 567 670.3 554 731.2 555.7C792 557.3 853 573.7 914 568.2C975 562.7 1036 535.3 1097 525.3C1158 515.3 1219 522.7 1249.5 526.3L1280 530L1280 721L1249.5 721C1219 721 1158 721 1097 721C1036 721 975 721 914 721C853 721 792 721 731.2 721C670.3 721 609.7 721 548.8 721C488 721 427 721 366 721C305 721 244 721 183 721C122 721 61 721 30.5 721L0 721Z" fill="#e34c67"></path><path d="M0 548L30.5 551.3C61 554.7 122 561.3 183 569.3C244 577.3 305 586.7 366 591.7C427 596.7 488 597.3 548.8 600.5C609.7 603.7 670.3 609.3 731.2 610.8C792 612.3 853 609.7 914 608.5C975 607.3 1036 607.7 1097 599.8C1158 592 1219 576 1249.5 568L1280 560L1280 721L1249.5 721C1219 721 1158 721 1097 721C1036 721 975 721 914 721C853 721 792 721 731.2 721C670.3 721 609.7 721 548.8 721C488 721 427 721 366 721C305 721 244 721 183 721C122 721 61 721 30.5 721L0 721Z" fill="#eb5967"></path><path d="M0 599L30.5 599.7C61 600.3 122 601.7 183 609.3C244 617 305 631 366 638.7C427 646.3 488 647.7 548.8 641.7C609.7 635.7 670.3 622.3 731.2 621C792 619.7 853 630.3 914 634C975 637.7 1036 634.3 1097 634.5C1158 634.7 1219 638.3 1249.5 640.2L1280 642L1280 721L1249.5 721C1219 721 1158 721 1097 721C1036 721 975 721 914 721C853 721 792 721 731.2 721C670.3 721 609.7 721 548.8 721C488 721 427 721 366 721C305 721 244 721 183 721C122 721 61 721 30.5 721L0 721Z" fill="#f36567"></path><path d="M0 682L30.5 680C61 678 122 674 183 668.8C244 663.7 305 657.3 366 654.3C427 651.3 488 651.7 548.8 657.7C609.7 663.7 670.3 675.3 731.2 673C792 670.7 853 654.3 914 653.7C975 653 1036 668 1097 669.8C1158 671.7 1219 660.3 1249.5 654.7L1280 649L1280 721L1249.5 721C1219 721 1158 721 1097 721C1036 721 975 721 914 721C853 721 792 721 731.2 721C670.3 721 609.7 721 548.8 721C488 721 427 721 366 721C305 721 244 721 183 721C122 721 61 721 30.5 721L0 721Z" fill="#fa7268"></path></svg>